{"title":"Black.and.White.2002.DVDRip.XviD.titler","uid":8348944,"size":963326575,"categoryP":"video","categoryS":"movies","magnet":"?xt=urn:btih:bfbe6846d4b2efc7bb1ab3dabc7c35023ac8cc56&amp;dn=Black.and.White.2002.DVDRip.XviD.titler&amp;tr=udp%3A%2F%2Ftracker.openbittorrent.com%3A80&amp;tr=udp%3A%2F%2Fopen.demonii.com%3A1337&amp;tr=udp%3A%2F%2Ftracker.coppersurfer.tk%3A6969&amp;tr=udp%3A%2F%2Fexodus.desync.com%3A6969","seeders":1,"leechers":1,"uploader":"movieZ.freak","files":3,"time":1365276541,"description":"SOURCE: DVD-R\n\n &lt;a href=&quot;\nhttp://www.imdb.com/title/tt0299547/&quot; rel=&quot;nofollow&quot; target=&quot;_NEW&quot;&gt;\nhttp://www.imdb.com/title/tt0299547/&lt;/a&gt;\n\n\n-SUBTITLE: No.\n\n-SAMPLE: Yes.\n\n-LANGUAGE: English.\n\n\nDIRECTOR: Craig Lahiff \n\n\nCAST:\n--------\nRobert Carlyle, Charles Dance, Kerry Fox, David Ngoombujarra, Colin Friels, Ben Mendelsohn\n\n\nPLOT:\n-------\nBased on real events, it tells the story of Max Stuart (Ngoombujarra), a young aboriginal man who was sentenced to death after being found guilty of the murder of a nine year old girl on what was considered questionable evidence. It follows the fight by his lawyers David O'Sullivan (Carlyle) and Helen Devaney (Fox) to save Stuart from execution, as well as Crown Prosecutor, Roderic Chamberlain's (Dance) efforts to convict Stuart. Rohan Rivett editor of an Adelaide paper, The News, and its publisher, Rupert Murdoch (Ben Mendelsohn) also feature as leading the public response in the campaign to save Stuart.\n\nGeneral\n----------\nFormat : AVI\nFormat/Info : Audio Video Interleave\nFile size : 900 MiB\nDuration : 1h 37mn\nOverall bit rate : 1 291 Kbps\nWriting application : VirtualDubMod 1.5.4.1 (build 2178/release)\nWriting library : VirtualDubMod build 2178/release\n\nVideo\n------------\nFormat : MPEG-4 Visual\nFormat profile : Advanced Simple@L5\nFormat settings, BVOP : 1\nFormat settings, QPel : No\nFormat settings, GMC : No warppoints\nFormat settings, Matrix : Custom\nCodec ID : XVID\nCodec ID/Hint : XviD\nDuration : 1h 37mn\nBit rate : 1 156 Kbps\nWidth : 608 pixels\nHeight : 352 pixels\nDisplay aspect ratio : 1.727\nFrame rate : 25.000 fps\nColor space : YUV\nChroma subsampling : 4:2:0\nBit depth : 8 bits\nScan type : Progressive\nCompression mode : Lossy\nBits/(Pixel*Frame) : 0.216\nStream size : 806 MiB (90%)\nWriting library : XviD 64\n\nAudio\n-----------\nFormat : MPEG Audio\nFormat version : Version 1\nFormat profile : Layer 3\nMode : Joint stereo\nMode extension : MS Stereo\nCodec ID : 55\nCodec ID/Hint : MP3\nDuration : 1h 37mn\nBit rate mode : Constant\nBit rate : 128 Kbps\nChannel(s) : 2 channels\nSampling rate : 48.0 KHz\nCompression mode : Lossy\nStream size : 89.2 MiB (10%)\nAlignment : Aligned on interleaves\nInterleave, duration : 80 ms (2.00 video frames)\nInterleave, preload duration : 504 ms\nWriting library : LAME3.99r\nLanguage : English","torrent":{"xt":"urn:btih:bfbe6846d4b2efc7bb1ab3dabc7c35023ac8cc56","amp;dn":"Black.and.White.2002.DVDRip.XviD.titler","amp;tr":["udp%3A%2F%2Ftracker.openbittorrent.com%3A80","udp%3A%2F%2Fopen.demonii.com%3A1337","udp%3A%2F%2Ftracker.coppersurfer.tk%3A6969","udp%3A%2F%2Fexodus.desync.com%3A6969"],"infoHash":"bfbe6846d4b2efc7bb1ab3dabc7c35023ac8cc56","infoHashBuffer":{"type":"Buffer","data":[191,190,104,70,212,178,239,199,187,26,179,218,188,124,53,2,58,200,204,86]},"announce":[],"urlList":[]}}